<svg width="36" height="36" viewBox="0 0 36 36" fill="none" xmlns="http://www.w3.org/2000/svg">
<rect width="36" height="36" rx="18" fill="#E3FD52"/>
<path d="M25.5 18.3594C25.5 18.1615 25.4219 17.987 25.2656 17.8359L20.0859 12.6719C20.0026 12.5885 19.9167 12.5286 19.8281 12.4922C19.7448 12.4557 19.6562 12.4375 19.5625 12.4375C19.3698 12.4375 19.2083 12.5026 19.0781 12.6328C18.9479 12.7578 18.8828 12.9167 18.8828 13.1094C18.8828 13.2031 18.8984 13.2943 18.9297 13.3828C18.9609 13.4661 19.0078 13.5391 19.0703 13.6016L20.8203 15.3828L23.9219 18.2109L24.0781 17.8203L21.5625 17.6641H11.6797C11.4766 17.6641 11.3099 17.7292 11.1797 17.8594C11.0547 17.9896 10.9922 18.1562 10.9922 18.3594C10.9922 18.5625 11.0547 18.7292 11.1797 18.8594C11.3099 18.9896 11.4766 19.0547 11.6797 19.0547H21.5625L24.0781 18.8984L23.9219 18.5156L20.8203 21.3359L19.0703 23.1172C19.0078 23.1797 18.9609 23.2552 18.9297 23.3438C18.8984 23.4271 18.8828 23.5156 18.8828 23.6094C18.8828 23.8021 18.9479 23.9609 19.0781 24.0859C19.2083 24.2161 19.3698 24.2812 19.5625 24.2812C19.75 24.2812 19.9193 24.2083 20.0703 24.0625L25.2656 18.8828C25.4219 18.7318 25.5 18.5573 25.5 18.3594Z" fill="#111111"/>
</svg>
