<svg width="36" height="36" viewBox="0 0 36 36" fill="none" xmlns="http://www.w3.org/2000/svg">
<g opacity="0.2">
<path d="M11.5 18.3594C11.5 18.1615 11.5781 17.987 11.7344 17.8359L16.9141 12.6719C16.9974 12.5885 17.0833 12.5286 17.1719 12.4922C17.2552 12.4557 17.3438 12.4375 17.4375 12.4375C17.6302 12.4375 17.7917 12.5026 17.9219 12.6328C18.0521 12.7578 18.1172 12.9167 18.1172 13.1094C18.1172 13.2031 18.1016 13.2943 18.0703 13.3828C18.0391 13.4661 17.9922 13.5391 17.9297 13.6016L16.1797 15.3828L13.0781 18.2109L12.9219 17.8203L15.4375 17.6641H25.3203C25.5234 17.6641 25.6901 17.7292 25.8203 17.8594C25.9453 17.9896 26.0078 18.1562 26.0078 18.3594C26.0078 18.5625 25.9453 18.7292 25.8203 18.8594C25.6901 18.9896 25.5234 19.0547 25.3203 19.0547H15.4375L12.9219 18.8984L13.0781 18.5156L16.1797 21.3359L17.9297 23.1172C17.9922 23.1797 18.0391 23.2552 18.0703 23.3438C18.1016 23.4271 18.1172 23.5156 18.1172 23.6094C18.1172 23.8021 18.0521 23.9609 17.9219 24.0859C17.7917 24.2161 17.6302 24.2812 17.4375 24.2812C17.25 24.2812 17.0807 24.2083 16.9297 24.0625L11.7344 18.8828C11.5781 18.7318 11.5 18.5573 11.5 18.3594Z" fill="#111111"/>
<rect x="0.5" y="0.5" width="35" height="35" rx="17.5" stroke="#111111"/>
</g>
</svg>
