<svg width="69" height="69" viewBox="0 0 69 69" fill="none" xmlns="http://www.w3.org/2000/svg">
<g clip-path="url(#clip0_66_1625)">
<path fill-rule="evenodd" clip-rule="evenodd" d="M69 47.5134C69 48.3337 69 49.154 68.9952 49.9754C68.9916 50.6661 68.9832 51.3568 68.9639 52.0475C68.923 53.5514 68.8328 55.0707 68.5623 56.5579C68.2881 58.0689 67.8407 59.4752 67.1324 60.8483C66.4386 62.1964 65.5318 63.4304 64.4496 64.5003C63.3673 65.5703 62.1178 66.4678 60.7541 67.1538C59.3664 67.8528 57.945 68.2962 56.4165 68.5673C54.9109 68.8348 53.3753 68.9239 51.8528 68.9643C48.9258 69 48.0961 69 47.2663 69H31.2663H21.7349C18.5457 68.9905 17.847 68.9834 17.1484 68.9643C15.6259 68.9239 14.0903 68.8348 12.5847 68.5673C11.0562 68.2962 9.63483 67.8528 8.24708 67.1538C6.88219 66.4678 5.63394 65.5703 4.55165 64.5003C3.46936 63.4304 2.56263 62.1964 1.86756 60.8483C1.16046 59.4752 0.713112 58.0689 0.437728 56.5579C0.167154 55.0707 0.0781657 53.5514 0.037279 52.0475C0.0180382 51.3568 0.0096204 50.6661 0.00601275 49.9754C0 49.154 0 48.3337 0 47.5134V38.0909V30.9091V21.4866C0 20.6663 0 19.8449 0.00601275 19.0258C0.0096204 18.3339 0.0180382 17.6432 0.037279 16.9525C0.0781657 15.4474 0.167154 13.9293 0.437728 12.4409C0.713112 10.9299 1.16046 9.52477 1.86756 8.15169C2.56263 6.80239 3.46936 5.5684 4.55165 4.49966C5.63394 3.42854 6.88219 2.53217 8.24708 1.84623C9.63483 1.1472 11.0562 0.703777 12.5847 0.432728C14.0903 0.165245 15.6259 0.076084 17.1484 0.0356644C20.0754 0 20.9051 0 21.7349 0H31.2663H46.5857L37.7337 0.00356644L47.2663 0C50.4543 0.0095105 51.153 0.0166434 51.8528 0.0356644C53.3753 0.076084 54.9109 0.165245 56.4165 0.432728C57.945 0.703777 59.3664 1.1472 60.7541 1.84623C62.1178 2.53217 63.3673 3.42854 64.4496 4.49966C65.5318 5.5684 66.4386 6.80239 67.1324 8.15169C67.8407 9.52477 68.2881 10.9299 68.5623 12.4409C68.8328 13.9293 68.923 15.4474 68.9639 16.9525C68.9832 17.6432 68.9916 18.3339 68.9952 19.0258C69 19.8449 69 20.6663 69 21.4866V30.9091V38.0909V47.5134Z" fill="url(#paint0_linear_66_1625)"/>
<path d="M29.0593 28.437C30.9484 28.437 32.6275 28.8567 34.0968 29.6959C35.566 30.5051 36.7055 31.719 37.515 33.3375C38.3546 34.926 38.7744 36.8443 38.7744 39.0922V53.7036H32.4776V39.9464C32.4776 37.9682 31.9828 36.4546 30.9933 35.4056C30.0038 34.3266 28.6545 33.7871 26.9454 33.7871C25.2062 33.7871 23.8269 34.3266 22.8075 35.4056C21.8179 36.4546 21.3232 37.9682 21.3232 39.9464V53.7036H15.0264V20.4345H21.3232V31.8988C22.1328 30.8198 23.2122 29.9806 24.5616 29.3812C25.9109 28.7518 27.4101 28.437 29.0593 28.437Z" fill="white"/>
<path d="M40.5254 23.6478C40.5254 22.3468 40.7831 21.193 41.2984 20.1863C41.8294 19.1796 42.5477 18.4052 43.4534 17.8631C44.3591 17.321 45.3664 17.05 46.4751 17.05C47.3184 17.05 48.1226 17.2358 48.8878 17.6076C49.6529 17.9638 50.262 18.4439 50.7148 19.0479V12.938H54.041V30.1295H50.7148V28.2245C50.3088 28.8595 49.7388 29.3706 49.0049 29.7578C48.2709 30.145 47.4199 30.3386 46.4517 30.3386C45.3586 30.3386 44.3591 30.0598 43.4534 29.5023C42.5477 28.9447 41.8294 28.1626 41.2984 27.1558C40.7831 26.1336 40.5254 24.9643 40.5254 23.6478ZM50.7382 23.6943C50.7382 22.9044 50.5821 22.2307 50.2698 21.6731C49.9574 21.1001 49.5358 20.6664 49.0049 20.3721C48.4739 20.0624 47.904 19.9075 47.2949 19.9075C46.6859 19.9075 46.1237 20.0546 45.6084 20.3489C45.0931 20.6432 44.6715 21.0768 44.3435 21.6499C44.0312 22.2075 43.875 22.8734 43.875 23.6478C43.875 24.4222 44.0312 25.1037 44.3435 25.6922C44.6715 26.2653 45.0931 26.7067 45.6084 27.0164C46.1394 27.3262 46.7015 27.4811 47.2949 27.4811C47.904 27.4811 48.4739 27.334 49.0049 27.0397C49.5358 26.7299 49.9574 26.2963 50.2698 25.7387C50.5821 25.1656 50.7382 24.4842 50.7382 23.6943Z" fill="white"/>
</g>
<defs>
<linearGradient id="paint0_linear_66_1625" x1="69" y1="69" x2="69" y2="0" gradientUnits="userSpaceOnUse">
<stop stop-color="#121212"/>
<stop offset="1" stop-color="#333333"/>
</linearGradient>
<clipPath id="clip0_66_1625">
<rect width="69" height="69" fill="white"/>
</clipPath>
</defs>
</svg>
